<svg id="Layer_1" data-name="Layer 1" xmlns="http://www.w3.org/2000/svg" viewBox="0 0 50 50"><defs><style>.cls-1{fill:#1800e7;}.cls-2{fill:#fff;}</style></defs><title>TM_Filled_icons</title><rect class="cls-1" x="7.5" y="17.64" width="35" height="6.03"/><polyline class="cls-1" points="39.7 26.75 39.7 41.58 10.3 41.58 10.3 26.75"/><path class="cls-1" d="M21.36,19.62a11.6,11.6,0,0,1-3.28-.4,5.72,5.72,0,0,1-4-5.53,5.82,5.82,0,0,1,4-5.51,5.91,5.91,0,0,1,4.74.45,5.85,5.85,0,0,1,2.82,3.81,6.61,6.61,0,0,1,.16,1.61h0c0,.81,0,1.63,0,2.44V18s0,.12,0,.19l0,.18a1,1,0,0,1-.22.78,1,1,0,0,1-.74.34h-.1c-.55,0-1.1,0-1.69.05S22,19.62,21.36,19.62ZM20,9.83a4.38,4.38,0,0,0-1.32.21,3.92,3.92,0,0,0-2.62,3.66,3.8,3.8,0,0,0,2.56,3.65,13.88,13.88,0,0,0,4.44.27l.82,0v-1.1c0-.81,0-1.61,0-2.41a5.17,5.17,0,0,0-.1-1.19,4,4,0,0,0-1.88-2.57A3.89,3.89,0,0,0,20,9.83Z"/><path class="cls-1" d="M28.65,19.62c-.6,0-1.2,0-1.78-.05s-1.2-.05-1.78-.05h0a1,1,0,0,1-.74-.34,1,1,0,0,1-.22-.78l0-.18c0-.07,0-.16,0-.19V16.49c0-.81,0-1.63,0-2.44a6.65,6.65,0,0,1,.16-1.61,5.85,5.85,0,0,1,2.82-3.81,5.93,5.93,0,0,1,4.75-.45h0a5.83,5.83,0,0,1,4,5.51,5.72,5.72,0,0,1-4,5.53A11.53,11.53,0,0,1,28.65,19.62Zm-2.52-2,.82,0a13.88,13.88,0,0,0,4.44-.27A3.8,3.8,0,0,0,34,13.7,3.92,3.92,0,0,0,31.33,10h0a4,4,0,0,0-3.21.28,4,4,0,0,0-1.88,2.57,5.27,5.27,0,0,0-.1,1.19c0,.8,0,1.6,0,2.41Z"/><polygon class="cls-2" points="27.82 17.56 27.82 42.12 21.89 42.12 21.89 17.55 27.82 17.56"/></svg>