<svg id="Layer_1" data-name="Layer 1" xmlns="http://www.w3.org/2000/svg" viewBox="0 0 50 50"><defs><style>.cls-1{fill:#1800e7;}.cls-2{fill:#fff;}</style></defs><title>TM_Filled_icons</title><path class="cls-1" d="M40.73,23.67A16.79,16.79,0,1,1,24,6.88,16.79,16.79,0,0,1,40.73,23.67"/><path class="cls-1" d="M24,41.17a17.5,17.5,0,1,1,17.5-17.5A17.52,17.52,0,0,1,24,41.17ZM24,7.6A16.07,16.07,0,1,0,40,23.67,16.09,16.09,0,0,0,24,7.6Z"/><path class="cls-2" d="M24.83,21.31c-3-.53-3.83-.9-3.83-1.75s.8-1.39,2.38-1.39a7.35,7.35,0,0,1,5.05,1.88l2.72-2.25a9.42,9.42,0,0,0-6-2.71V12.87H22.35v2.22c-3.41.35-5.5,2.06-5.5,4.86,0,3.83,3.37,4.52,6.93,5.07,3.09.48,4,.87,4,1.91,0,1.21-1.1,1.72-3,1.72a5.14,5.14,0,0,1-5.09-2.71l-4.08.83c1,2.5,2.66,4.38,6.79,4.88V34.1h2.79V31.79c4.64-.14,6.77-2.27,6.77-5.27,0-3.95-4.24-4.71-7.11-5.21"/><rect class="cls-2" x="5.7" y="21.82" width="36.3" height="3.16" transform="translate(-9.56 23.71) rotate(-45)"/></svg>