<svg id="Layer_1" data-name="Layer 1" xmlns="http://www.w3.org/2000/svg" viewBox="0 0 50 50"><defs><style>.cls-1{fill:#1800e7;}.cls-2{fill:#fff;}</style></defs><title>TM_Filled_icons</title><path class="cls-1" d="M38.06,17.57a1.81,1.81,0,0,0-.56-1.31l-6.06-5.83a1.79,1.79,0,0,0-1.26-.51H14a1.83,1.83,0,0,0-1.82,1.82V43.1A1.82,1.82,0,0,0,14,44.92H36.24a1.82,1.82,0,0,0,1.82-1.82Z"/><path class="cls-2" d="M16.64,42.19H33.58a1.75,1.75,0,0,0,1.75-1.75V27.79A1.76,1.76,0,0,0,33.58,26H16.64a1.75,1.75,0,0,0-1.74,1.75V40.44a1.74,1.74,0,0,0,1.74,1.75ZM16,40.44V34.33h5.64V41.1h-5a.66.66,0,0,1-.65-.66M28.6,31.73h5.63v4.78H28.6ZM27.5,41.1H22.72v-14H27.5Zm6.08,0h-5V37.6h5.63v2.84a.66.66,0,0,1-.65.66m.65-13.31v2.84H28.6V27.14h5a.65.65,0,0,1,.65.65m-17.59-.65h5v6.1H16V27.79a.66.66,0,0,1,.65-.65"/></svg>