<svg id="Layer_1" data-name="Layer 1" xmlns="http://www.w3.org/2000/svg" viewBox="0 0 50 50"><defs><style>.cls-1{fill:#1800e7;}</style></defs><title>TM_Filled_icons</title><path class="cls-1" d="M7.59,26.86h6.14a.18.18,0,0,0,.15-.08L19,20a.94.94,0,0,1,1.62.21L25.46,32.3l3.67-7.91a.93.93,0,0,1,.85-.54h0a.93.93,0,0,1,.85.56l2.86,6.39,2.32-3a1.48,1.48,0,0,1,1.18-.58H42.5a17.5,17.5,0,0,0-35-.37h.09"/><path class="cls-1" d="M37.19,28.54a.17.17,0,0,0-.14.07l-2.71,3.5a.94.94,0,0,1-1.59-.19L30,25.7l-3.68,7.94a1,1,0,0,1-.85.54h0a.94.94,0,0,1-.84-.58l-5-12.3-4.68,6.27a1.52,1.52,0,0,1-1.2.6H7.5a17.51,17.51,0,0,0,35,.38Z"/></svg>