<svg id="Layer_1" data-name="Layer 1" xmlns="http://www.w3.org/2000/svg" viewBox="0 0 50 50"><defs><style>.cls-1{fill:#ff5e00;}.cls-2{fill:#1800e7;}.cls-3{fill:#fff;}</style></defs><title>TM_Filled_icons</title><path class="cls-1" d="M8.43,36.5a.63.63,0,0,1-.64-.62.64.64,0,0,1,.62-.66L13.73,35a1.87,1.87,0,0,0,1.09-.38l5.64-4.29a3.66,3.66,0,0,1,1.9-.74l.34,0a6.4,6.4,0,0,0,2.42-.72,9,9,0,0,0,1.23-.78,1.64,1.64,0,0,0,.63-.87.64.64,0,0,0-.08-.6,1.88,1.88,0,0,0-1.42-.41l-4.22.09a1.46,1.46,0,0,0-.83.29L17.3,28.91a.65.65,0,0,1-.9-.13.64.64,0,0,1,.14-.9l3.13-2.31A2.78,2.78,0,0,1,21.24,25L25.47,25a2.93,2.93,0,0,1,2.41.87,1.93,1.93,0,0,1,.35,1.7,2.86,2.86,0,0,1-1.1,1.59,10.45,10.45,0,0,1-1.41.9,7.55,7.55,0,0,1-2.91.86l-.33,0a2.43,2.43,0,0,0-1.25.48l-5.64,4.3a3.16,3.16,0,0,1-1.82.64l-5.32.18Z"/><path class="cls-2" d="M40,35H20.84a1.73,1.73,0,0,1-1.73-1.73V32a.64.64,0,1,1,1.27,0v1.3a.47.47,0,0,0,.46.46H40a.47.47,0,0,0,.46-.46V20a.46.46,0,0,0-.46-.46H20.69a.45.45,0,0,0-.46.46V23A.64.64,0,0,1,19,23V20a1.74,1.74,0,0,1,1.74-1.74H40A1.73,1.73,0,0,1,41.75,20V33.26A1.72,1.72,0,0,1,40,35Z"/><path class="cls-2" d="M18.92,23V20a1.12,1.12,0,0,1,1.13-1.1H40A1.12,1.12,0,0,1,41.12,20V33.26A1.13,1.13,0,0,1,40,34.36H20.22a1.12,1.12,0,0,1-1.13-1.1V32"/><path class="cls-3" d="M33.46,31.74H31.34a.64.64,0,1,1,0-1.28h2.12a.64.64,0,0,1,0,1.28Z"/><path class="cls-3" d="M16.92,28.4l3.13-2.32a2.09,2.09,0,0,1,1.2-.41l4.22-.08c1.29,0,2.43.49,2.14,1.79a2.28,2.28,0,0,1-.87,1.22,8.67,8.67,0,0,1-1.32.84,6.89,6.89,0,0,1-2.66.79l-.34,0a3,3,0,0,0-1.57.61l-5.64,4.29a2.49,2.49,0,0,1-1.46.51l-5.32.18"/><path class="cls-3" d="M8.43,37.49a1.63,1.63,0,0,1-.06-3.26l5.33-.18a.86.86,0,0,0,.52-.18l5.64-4.29a4.73,4.73,0,0,1,2.41-.94l.34,0a5.19,5.19,0,0,0,2-.61,7.4,7.4,0,0,0,1.09-.68l.1-.09a1.73,1.73,0,0,0-.33,0l-4.23.08a.51.51,0,0,0-.26.09l-3.14,2.32A1.63,1.63,0,0,1,16,27.08l3.13-2.31A3.75,3.75,0,0,1,21.22,24L25.43,24h0a3.91,3.91,0,0,1,3.22,1.23,2.91,2.91,0,0,1,.55,2.54,3.89,3.89,0,0,1-1.46,2.16,11.2,11.2,0,0,1-1.55,1,8.6,8.6,0,0,1-3.29,1l-.33,0a1.43,1.43,0,0,0-.74.28l-5.64,4.3a4.13,4.13,0,0,1-2.39.84l-5.32.18Z"/><path class="cls-3" d="M38.16,31.74H36a.64.64,0,0,1,0-1.28h2.13a.64.64,0,0,1,0,1.28Z"/><path class="cls-2" d="M7.15,27.83l6-6.22a2.68,2.68,0,0,1,1.07-.68l2-.66a.89.89,0,0,1,1.16.83l.07,5.77a.6.6,0,0,0,1,.47l1.7-1.26a2.09,2.09,0,0,1,1.2-.41l4.22-.08c1.29,0,2.43.49,2.14,1.79a2.28,2.28,0,0,1-.87,1.22,8.67,8.67,0,0,1-1.32.84,7.08,7.08,0,0,1-2.66.8l-.34,0a3,3,0,0,0-1.57.61l-5.64,4.29a2.49,2.49,0,0,1-1.46.51l-6.15.16a.86.86,0,0,1-.85-.64l0-6a1.41,1.41,0,0,1,.35-1.33"/></svg>