<svg id="Layer_1" data-name="Layer 1" xmlns="http://www.w3.org/2000/svg" viewBox="0 0 50 50"><defs><style>.cls-1{fill:#1800e7;}</style></defs><title>TM_Filled_icons</title><path class="cls-1" d="M8.85,18.09H31.3a.39.39,0,0,1,.4.36V23.3h7.57a.36.36,0,0,1,.32.2l3.25,5.21a.32.32,0,0,1,.08.2v7.22a.38.38,0,0,1-.36.4H38.87a3.19,3.19,0,0,1-6.33,0H18a3.19,3.19,0,0,1-6.33,0H8.85a.39.39,0,0,1-.4-.36V18.5a.4.4,0,0,1,.36-.41h0m30.22,6H31.7v4.41H41.8Zm3,5.21H31.7v6.41h.5c.14,0,.35.05.43-.11a.47.47,0,0,0,0-.16,3.2,3.2,0,0,1,3.77-2.36,3,3,0,0,1,.82.27,3.2,3.2,0,0,1,1.41,1.29,1.74,1.74,0,0,1,.2.49,1.66,1.66,0,0,0,.12.5h3.13Zm0,0H31.7v6.41h.5c.14,0,.35.05.43-.11a.47.47,0,0,0,0-.16,3.2,3.2,0,0,1,3.77-2.36,3,3,0,0,1,.82.27,3.2,3.2,0,0,1,1.41,1.29,1.74,1.74,0,0,1,.2.49,1.66,1.66,0,0,0,.12.5h3.13Zm-6.41,9.21a2.41,2.41,0,1,0-2.41-2.4,2.4,2.4,0,0,0,2.41,2.4Zm0,0a2.41,2.41,0,1,0-2.41-2.4,2.4,2.4,0,0,0,2.41,2.4Zm-20.84,0a2.41,2.41,0,1,0-2.41-2.4,2.4,2.4,0,0,0,2.41,2.4Zm0,0a2.41,2.41,0,1,0-2.41-2.4,2.4,2.4,0,0,0,2.41,2.4Zm-5.61-2.8h2.43a3.49,3.49,0,0,1,1.68-2.28,3.2,3.2,0,0,1,4.38,1.15,2.38,2.38,0,0,1,.24.51,5.52,5.52,0,0,0,.16.54H30.9V18.9H9.25Zm0,0h2.43a3.49,3.49,0,0,1,1.68-2.28,3.2,3.2,0,0,1,4.38,1.15,2.38,2.38,0,0,1,.24.51,5.52,5.52,0,0,0,.16.54H30.9V18.9H9.25Z"/><path class="cls-1" d="M35.71,39.6a3,3,0,0,1-.42,0,3.44,3.44,0,0,1-3-2.77h-14a3.46,3.46,0,0,1-6.79,0H8.85a.62.62,0,0,1-.45-.17.62.62,0,0,1-.21-.44.11.11,0,0,1,0-.08V18.5A.62.62,0,0,1,8.35,18a.66.66,0,0,1,.44-.21H31.3a.64.64,0,0,1,.66.6V23h7.31a.63.63,0,0,1,.56.34l3.22,5.17a.59.59,0,0,1,.13.36v7.22a.65.65,0,0,1-.6.67H39.1A3.46,3.46,0,0,1,35.71,39.6ZM17.79,36.26h15l0,.24a2.93,2.93,0,0,0,5.81,0l0-.24h3.89l0,.27v-.27a.1.1,0,0,0,.1-.12V28.91a0,0,0,0,0,0,0l0,0-3.24-5.21c0-.05-.06-.07-.1-.07H31.43V18.5l.27-.05-.27,0a.11.11,0,0,0-.12-.11H8.82a.11.11,0,0,0-.1.12V36.13l-.27,0h.27a.1.1,0,0,0,0,.08s0,0,.08,0h3.09l0,.24a2.93,2.93,0,0,0,5.81,0ZM35.71,38.8h0A2.69,2.69,0,0,1,33,36.13h0a2.68,2.68,0,0,1,2.67-2.67h0a2.67,2.67,0,0,1,2.67,2.67h0a2.68,2.68,0,0,1-2.67,2.67Zm-2.14-2.67h0a2.16,2.16,0,0,0,2.14,2.14v0a2.15,2.15,0,0,0,1.51-.63,2.13,2.13,0,0,0,.62-1.51h0A2.13,2.13,0,0,0,35.71,34h0A2.14,2.14,0,0,0,33.57,36.13ZM14.87,38.8h0a2.67,2.67,0,1,1,2.68-2.67A2.7,2.7,0,0,1,14.86,38.8Zm-2.14-2.67a2.15,2.15,0,0,0,2.13,2.14v0a2.14,2.14,0,1,0-2.14-2.14ZM32.38,36h-1V29.05h11v6.87H38.84l-.08-.14a1.17,1.17,0,0,1-.12-.42s0-.1,0-.14a1.78,1.78,0,0,0-.18-.43,2.9,2.9,0,0,0-1.29-1.18,3,3,0,0,0-.76-.25,3.2,3.2,0,0,0-2.38.52,2.47,2.47,0,0,0-1.07,1.62,1.09,1.09,0,0,1-.07.24A.5.5,0,0,1,32.38,36ZM32,35.46h.44v0a3,3,0,0,1,1.3-2,3.78,3.78,0,0,1,2.77-.61,3.4,3.4,0,0,1,.9.3,3.52,3.52,0,0,1,1.53,1.4,2,2,0,0,1,.22.56,1.42,1.42,0,0,1,0,.2s0,.06,0,.09h2.67v-5.8H32ZM10.76,36H9V18.63H31.16V35.91H18l-.08-.13a1,1,0,0,1-.13-.4,1.21,1.21,0,0,0-.05-.18,2.86,2.86,0,0,0-.22-.47,2.57,2.57,0,0,0-.66-.77,3,3,0,0,0-3.36-.28A3.2,3.2,0,0,0,12,35.78l0,.21H10.76Zm-1.24-.54h2a3.81,3.81,0,0,1,1.76-2.25,3.54,3.54,0,0,1,4,.34,3.42,3.42,0,0,1,.78.91,3.94,3.94,0,0,1,.26.55c0,.09.05.18.07.26a.52.52,0,0,1,0,.11h12.3V19.16H9.52Zm32.76-6.68H31.43V23.84h7.79ZM32,28.25h9.36l-2.4-3.88H32Z"/></svg>