<svg id="Layer_1" data-name="Layer 1" xmlns="http://www.w3.org/2000/svg" viewBox="0 0 50 50"><defs><style>.cls-1{fill:#1800e7;}.cls-2{fill:#fff;}</style></defs><title>TM_Filled_icons</title><path class="cls-1" d="M22.36,35.33c.17.05,1.67,2.09,1.84,2.13l.61,4.23h4.9l.61-4.23a12,12,0,0,0,3.14-1.3l3.42,2.56,3.47-3.46-2.56-3.42a12,12,0,0,0,1.3-3.15l4.23-.61v-4.9l-4.23-.61a12,12,0,0,0-1.3-3.14L40.35,16l-3.47-3.46L33.46,15.1a12,12,0,0,0-3.14-1.3l-.61-4.23h-4.9L24.2,13.8a11.9,11.9,0,0,0-3.15,1.3l-3.42-2.55L14.17,16l2.56,3.42a12.35,12.35,0,0,0-1.31,3.14l-4.22.61v4.9l4.22.61c.1.36,2.3,2.42,2.43,2.77"/><path class="cls-1" d="M29.71,42.3h-4.9a.6.6,0,0,1-.6-.52l-.58-4c-.17-.18-.42-.49-.84-1-.26-.31-.63-.78-.76-.91a.61.61,0,0,1,.51-1.1c.25.08.37.22,1.2,1.25.26.33.65.82.79,1a.57.57,0,0,1,.27.43l.54,3.7h3.84l.53-3.7a.63.63,0,0,1,.45-.51,11.5,11.5,0,0,0,3-1.23.62.62,0,0,1,.68,0l3,2.25,2.71-2.72-2.24-3a.61.61,0,0,1,0-.67,11.67,11.67,0,0,0,1.24-3,.6.6,0,0,1,.5-.45l3.71-.54V23.71L39,23.18a.63.63,0,0,1-.5-.45,11.52,11.52,0,0,0-1.24-3,.62.62,0,0,1,0-.68l2.24-3-2.71-2.71-3,2.24a.62.62,0,0,1-.68,0,11.52,11.52,0,0,0-3-1.24.63.63,0,0,1-.45-.5l-.53-3.71H25.34l-.54,3.71a.6.6,0,0,1-.45.5,11.67,11.67,0,0,0-3,1.24.61.61,0,0,1-.67,0l-3-2.24L15,16.06l2.25,3a.62.62,0,0,1,0,.68,11.88,11.88,0,0,0-1.24,3,.61.61,0,0,1-.5.45l-3.7.53v3.84l3.7.54a.59.59,0,0,1,.48.38c.13.2.75.85,1.16,1.28.93,1,1.18,1.25,1.27,1.51a.61.61,0,0,1-1.13.45c-.11-.17-.66-.74-1-1.12a17.83,17.83,0,0,1-1.22-1.34l-3.94-.57a.6.6,0,0,1-.52-.6v-4.9a.6.6,0,0,1,.52-.6L14.94,22A13,13,0,0,1,16,19.47l-2.32-3.1a.61.61,0,0,1,.06-.79l3.46-3.47a.62.62,0,0,1,.8,0l3.1,2.32a12.6,12.6,0,0,1,2.55-1.06l.56-3.83a.61.61,0,0,1,.6-.53h4.9a.61.61,0,0,1,.6.53l.55,3.83a12.45,12.45,0,0,1,2.56,1.06l3.1-2.32a.61.61,0,0,1,.79,0l3.47,3.47a.61.61,0,0,1,0,.79l-2.32,3.1A12.69,12.69,0,0,1,39.57,22l3.83.55a.61.61,0,0,1,.53.6v4.9a.61.61,0,0,1-.53.6l-3.83.56a12.6,12.6,0,0,1-1.06,2.55l2.32,3.1a.62.62,0,0,1,0,.8l-3.47,3.46a.61.61,0,0,1-.79.06l-3.1-2.32A13,13,0,0,1,30.86,38l-.55,3.83A.6.6,0,0,1,29.71,42.3ZM24.55,37Zm-.2-.1Zm0,0Zm-2.16-1Zm0,0Zm-4.92-4.24,0,0ZM16,28.54Z"/><path class="cls-2" d="M15,42.24l10-10a.68.68,0,0,1,.68-.15,6.58,6.58,0,0,0,8.47-7.53c-.07-.36-4.59-4.76-4.85-5a.62.62,0,0,0-.35-.18,6.57,6.57,0,0,0-7.52,8.47.66.66,0,0,1-.16.68l-9.94,10a2.28,2.28,0,0,0,0,3.24l.47.48a2.29,2.29,0,0,0,3.25,0h0"/><path class="cls-2" d="M13.33,44.54a3.91,3.91,0,0,1-2.78-1.15l-.48-.48a3.92,3.92,0,0,1,0-5.54l9.54-9.55A8.21,8.21,0,0,1,23,19.07a8.12,8.12,0,0,1,6.15-1.25,2.28,2.28,0,0,1,1.18.61l.08.09c5.08,4.95,5.12,5.2,5.23,5.8a8.28,8.28,0,0,1-.24,4.07,8.21,8.21,0,0,1-9.77,5.46L16.1,43.39a3.89,3.89,0,0,1-2.77,1.15ZM27.58,20.93a4.84,4.84,0,0,0-2.75.84,4.93,4.93,0,0,0-1.95,5.62,2.28,2.28,0,0,1-.54,2.32l-10,10a.65.65,0,0,0,0,.94l.48.48a.64.64,0,0,0,.47.19h0a.65.65,0,0,0,.47-.19h0l10-10a2.28,2.28,0,0,1,2.35-.54,4.94,4.94,0,0,0,6.4-5.34c-.33-.38-1.32-1.45-4.22-4.29A5.58,5.58,0,0,0,27.58,20.93Zm-2.5,12.76h0Zm-5.31-5.31v0Zm12.68-3.45v0ZM28.54,21h0Zm-.48-.26Z"/><path class="cls-2" d="M35.52,25.89a7.9,7.9,0,1,1-7.9-7.9,7.9,7.9,0,0,1,7.9,7.9"/><path class="cls-2" d="M27.62,34.09a8.2,8.2,0,1,1,8.2-8.2A8.21,8.21,0,0,1,27.62,34.09Zm0-15.81a7.61,7.61,0,1,0,7.61,7.61A7.62,7.62,0,0,0,27.62,18.28Z"/><path class="cls-1" d="M15,42.24l10-10a.68.68,0,0,1,.68-.15,6.58,6.58,0,0,0,8.47-7.53c-.07-.36-1-.44-1.12-.35l-3,3a.65.65,0,0,1-.93,0h0L26.2,24.48a.65.65,0,0,1,0-.93h0l3-3a.67.67,0,0,0,0-.94.62.62,0,0,0-.35-.18,6.57,6.57,0,0,0-7.52,8.47.66.66,0,0,1-.16.68l-9.94,10a2.28,2.28,0,0,0,0,3.24l.47.48a2.29,2.29,0,0,0,3.25,0h0"/><path class="cls-1" d="M13.33,43.21a2.56,2.56,0,0,1-1.83-.76L11,42a2.58,2.58,0,0,1,0-3.66l9.94-10a.38.38,0,0,0,.09-.38,6.87,6.87,0,0,1,7.86-8.85.9.9,0,0,1,.5.26,1,1,0,0,1,.28.67.9.9,0,0,1-.27.68l-3,3a.36.36,0,0,0-.11.25.36.36,0,0,0,.11.26l2.79,2.79a.36.36,0,0,0,.51,0l3-3c.26-.26,1,0,1,0,.43.13.56.36.59.53a7,7,0,0,1-.2,3.42,6.88,6.88,0,0,1-8.65,4.44.39.39,0,0,0-.39.09l-9.94,9.94a2.57,2.57,0,0,1-1.83.76ZM27.58,19.59a6.28,6.28,0,0,0-6,8.21,1,1,0,0,1-.22,1l-10,9.95a2,2,0,0,0,0,2.82l.47.48a2,2,0,0,0,1.42.59h0A2,2,0,0,0,14.74,42h0l10-10a1,1,0,0,1,1-.22,6.29,6.29,0,0,0,8.08-7.19,1.41,1.41,0,0,0-.67-.15l-3,3a1,1,0,0,1-1.35,0L26,24.69a1,1,0,0,1,0-1.35l3-3a.35.35,0,0,0,.1-.26.36.36,0,0,0-.11-.26.35.35,0,0,0-.19-.1A6.38,6.38,0,0,0,27.58,19.59Zm5.47,4.94Z"/></svg>