<svg id="Layer_1" data-name="Layer 1" xmlns="http://www.w3.org/2000/svg" viewBox="0 0 50 50"><defs><style>.cls-1{fill:#1800e7;}</style></defs><title>TM_Filled_icons</title><rect class="cls-1" x="6.51" y="7.44" width="15.96" height="35.12"/><path class="cls-1" d="M22.62,42.7H6.37V7.3H22.62Zm-16-.28H22.34V7.58H6.65Z"/><rect class="cls-1" x="7.67" y="8.6" width="13.65" height="32.81"/><path class="cls-1" d="M21.32,42.11H7.67A.7.7,0,0,1,7,41.4V8.59a.7.7,0,0,1,.7-.7H21.32a.7.7,0,0,1,.7.7V41.4A.7.7,0,0,1,21.32,42.11ZM8.37,40.7H20.62V9.3H8.37Z"/><rect class="cls-1" x="27.02" y="22.96" width="13.65" height="18.44"/><path class="cls-1" d="M40.67,42.11H27a.7.7,0,0,1-.7-.7V23a.7.7,0,0,1,.7-.7H40.67a.7.7,0,0,1,.7.7V41.41A.7.7,0,0,1,40.67,42.11Zm-13-1.41H40v-17H27.72Z"/><rect class="cls-1" x="27.02" y="8.6" width="13.65" height="8.86"/><path class="cls-1" d="M40.67,18.16H27a.7.7,0,0,1-.7-.7V8.59a.7.7,0,0,1,.7-.7H40.67a.7.7,0,0,1,.7.7v8.87A.7.7,0,0,1,40.67,18.16Zm-13-1.4H40V9.3H27.72Z"/></svg>