<svg id="Layer_1" data-name="Layer 1" xmlns="http://www.w3.org/2000/svg" viewBox="0 0 50 50"><defs><style>.cls-1{fill:#1800e7;}.cls-2{fill:#fff;}</style></defs><title>TM_Filled_icons</title><path class="cls-1" d="M39.3,27.42H10.69a3.2,3.2,0,0,0-3.19,3.2V34a3.19,3.19,0,0,0,3.19,3.2H39.31A3.19,3.19,0,0,0,42.5,34v-3.4a3.2,3.2,0,0,0-3.19-3.2h0Z"/><path class="cls-1" d="M41.33,34a2,2,0,0,1-2,2H10.69a2,2,0,0,1-2-2v-3.4a2,2,0,0,1,2-2H39.31a2,2,0,0,1,2,2Z"/><path class="cls-1" d="M25,22.45h0A5.28,5.28,0,0,0,21.36,24a.74.74,0,0,0,0,1,.73.73,0,0,0,1,0,3.87,3.87,0,0,1,2.55-1.11h0A3.84,3.84,0,0,1,27.53,25a.74.74,0,0,0,1-1A5.32,5.32,0,0,0,25,22.45Z"/><path class="cls-1" d="M16.86,18.91a11.1,11.1,0,0,1,15.68-.59c.21.19.4.39.59.59a.74.74,0,0,0,1,0,.73.73,0,0,0,0-1,12.57,12.57,0,0,0-17.76-.67c-.23.22-.45.44-.66.67a.73.73,0,0,0,0,1,.74.74,0,0,0,1,0Z"/><path class="cls-1" d="M31,22.2a.74.74,0,0,0,.52-1.26,9,9,0,0,0-12.72-.3l-.31.3a.74.74,0,0,0,0,1,.73.73,0,0,0,1,0,7.53,7.53,0,0,1,10.64-.3l.3.3a.71.71,0,0,0,.52.22Z"/><path class="cls-2" d="M38.15,31.79H24.28a.59.59,0,0,0,0,1.17H38.15a.59.59,0,0,0,0-1.17Z"/><path class="cls-2" d="M13.61,30.78a1.51,1.51,0,1,0,0,3,1.51,1.51,0,0,0,0-3Z"/><path class="cls-2" d="M17.81,30.78a1.51,1.51,0,1,0,1.5,1.51,1.51,1.51,0,0,0-1.5-1.51Z"/></svg>