<svg id="Layer_1" data-name="Layer 1" xmlns="http://www.w3.org/2000/svg" viewBox="0 0 50 50"><defs><style>.cls-1{fill:#1800e7;}.cls-2{fill:#fff;}</style></defs><title>TM_Filled_icons</title><path class="cls-1" d="M42.29,18H9.49a1.23,1.23,0,0,0-1.1,1.31V39.43a1.23,1.23,0,0,0,1.1,1.31h32.8a1.22,1.22,0,0,0,1.1-1.31V19.34A1.22,1.22,0,0,0,42.29,18"/><path class="cls-2" d="M22.76,24.05l8.08,4.66a.54.54,0,0,1,0,.93l-8.08,4.67a.53.53,0,0,1-.8-.46V24.51a.53.53,0,0,1,.8-.46"/><polygon class="cls-2" points="23.13 25.55 29.41 29.18 23.13 32.8 23.13 25.55"/></svg>