<svg id="Layer_1" data-name="Layer 1" xmlns="http://www.w3.org/2000/svg" viewBox="0 0 50 50"><defs><style>.cls-1{fill:#1800e7;}.cls-2{fill:#fff;}</style></defs><title>TM_Filled_icons</title><path class="cls-1" d="M33.39,21.45l6.16-.07a.6.6,0,0,1,.61.6V38s.09,2.81-3.17,2.81a3.34,3.34,0,0,1-3.59-2.71s0-.07,0-.1V9a.32.32,0,0,0-.52-.25l-3,2.85a.6.6,0,0,1-.8,0L25.47,8.53a.62.62,0,0,0-.76,0l-3.34,3.08a.58.58,0,0,1-.79,0l-3.67-3.1a.65.65,0,0,0-.75,0L12.63,11.6a.58.58,0,0,1-.79,0L8.72,8.73A.32.32,0,0,0,8.2,9V37.75s.07,3,2.6,3H36.4"/><path class="cls-1" d="M37,41.49a5.54,5.54,0,0,1-.59,0v0H10.8c-2.53,0-3.27-2.44-3.3-3.73V9a1,1,0,0,1,1.65-.8l0,0L12.24,11l3.5-3a1.34,1.34,0,0,1,1.58,0l0,0,3.6,3L24.27,8a1.32,1.32,0,0,1,1.62,0l0,0,3.49,3,3-2.82A1,1,0,0,1,34.09,9V20.74l5.45-.06h0A1.28,1.28,0,0,1,40.85,22V38a3.61,3.61,0,0,1-1,2.43A3.86,3.86,0,0,1,37,41.49Zm-2.9-19.35V38A2.62,2.62,0,0,0,37,40.1a2.6,2.6,0,0,0,1.9-.64A2.26,2.26,0,0,0,39.46,38V22.07ZM8.89,9.83V37.75C8.9,38,9,40.1,10.8,40.1H33.62a4,4,0,0,1-.9-1.9.86.86,0,0,1,0-.22V9.85l-2.39,2.24a1.3,1.3,0,0,1-1.74,0l-3.47-3-3.26,3a1.28,1.28,0,0,1-1.71,0l-3.59-3-3.45,3a1.3,1.3,0,0,1-1.72,0Z"/><path class="cls-1" d="M37,40.79a3.34,3.34,0,0,1-3.59-2.71s0-.07,0-.1V9a.32.32,0,0,0-.52-.25l-3,2.85a.6.6,0,0,1-.8,0L25.47,8.53a.62.62,0,0,0-.76,0l-3.34,3.08a.58.58,0,0,1-.79,0l-3.67-3.1a.65.65,0,0,0-.75,0L12.63,11.6a.58.58,0,0,1-.79,0L8.72,8.73A.32.32,0,0,0,8.2,9V37.74s.07,3,2.6,3H36.4l-5.09-2.11.34-15.92-.71-2.23,3.4.5"/><path class="cls-2" d="M21.72,24.31c-2.13-.38-2.74-.64-2.74-1.25s.57-1,1.7-1a5.24,5.24,0,0,1,3.6,1.35l1.95-1.61A6.75,6.75,0,0,0,22,19.87V18.28H20v1.59c-2.44.25-3.93,1.47-3.93,3.47C16,26.07,18.43,26.57,21,27c2.21.34,2.87.62,2.87,1.36s-.79,1.23-2.16,1.23A3.69,3.69,0,0,1,18,27.62l-2.91.59C15.8,30,17,31.33,20,31.69v1.75h2V31.79c3.31-.1,4.83-1.62,4.83-3.76,0-2.82-3-3.36-5.07-3.72"/><path class="cls-2" d="M38.47,42.29h-.35a4,4,0,0,1-4-4V20.1a4,4,0,0,1,4-4h.35a4,4,0,0,1,4,4V38.26A4,4,0,0,1,38.47,42.29Zm-.35-25a2.79,2.79,0,0,0-2.78,2.79V38.26a2.79,2.79,0,0,0,2.78,2.79h.35a2.79,2.79,0,0,0,2.79-2.79V20.1a2.79,2.79,0,0,0-2.79-2.79Z"/></svg>