<svg id="Layer_1" data-name="Layer 1" xmlns="http://www.w3.org/2000/svg" viewBox="0 0 50 50"><defs><style>.cls-1{fill:#1800e7;}.cls-2{fill:#fff;}</style></defs><title>TM_Filled_icons</title><path class="cls-1" d="M37,40.37H11.74a.21.21,0,0,1-.22-.21V23.05a.22.22,0,0,1,.22-.22H37a.22.22,0,0,1,.22.22V40.16a.21.21,0,0,1-.22.21"/><path class="cls-1" d="M37,41.17H11.74a1,1,0,0,1-1-1V23.05a1,1,0,0,1,1-1H37a1,1,0,0,1,1,1V40.16A1,1,0,0,1,37,41.17ZM12.31,39.58H36.39v-16H12.31Z"/><path class="cls-1" d="M17.79,22.67H16.21V17.84c0-.4,0-.8,0-1.21a15.36,15.36,0,0,1,.34-4.53,8.55,8.55,0,0,1,2.15-3.81,8.05,8.05,0,0,1,5.71-2.12,9.92,9.92,0,0,1,1.84.16A7.29,7.29,0,0,1,31,9.3a9.35,9.35,0,0,1,1.58,5.52v7.72H31V14.82a7.8,7.8,0,0,0-1.29-4.61A5.74,5.74,0,0,0,26,7.89a8.62,8.62,0,0,0-1.56-.14,6.5,6.5,0,0,0-4.6,1.67,7,7,0,0,0-1.73,3.11,14.29,14.29,0,0,0-.29,4.06c0,.42,0,.84,0,1.25Z"/><rect class="cls-2" x="23.08" y="28.33" width="2.53" height="6.38"/></svg>