<svg id="Layer_1" data-name="Layer 1" xmlns="http://www.w3.org/2000/svg" viewBox="0 0 50 50"><defs><style>.cls-1{fill:#1800e7;}.cls-2{fill:#fff;}</style></defs><title>TM_Filled_icons</title><path class="cls-1" d="M10.55,33.56a16.8,16.8,0,1,1,5.89,5.89l-5.82,1.64a1.37,1.37,0,0,1-1.71-.94,1.27,1.27,0,0,1,0-.77Z"/><path class="cls-1" d="M25,42.5a17.53,17.53,0,0,1-8.67-2.3l-5.53,1.57a2.08,2.08,0,0,1-1.58-.18,2.08,2.08,0,0,1-1-2.41L9.8,33.65A17.47,17.47,0,1,1,25,42.5Zm-8.57-3.75a.77.77,0,0,1,.36.09,16.1,16.1,0,1,0-5.64-5.64.76.76,0,0,1,.07.55L9.58,39.57a.65.65,0,0,0,0,.39.66.66,0,0,0,.33.4.67.67,0,0,0,.52.06l5.82-1.65A.58.58,0,0,1,16.44,38.75Z"/><path class="cls-2" d="M24,20.33a3.13,3.13,0,1,1-3.13-3.12A3.13,3.13,0,0,1,24,20.33"/><path class="cls-2" d="M32.3,20.33a3.12,3.12,0,1,1-3.12-3.12,3.12,3.12,0,0,1,3.12,3.12"/><path class="cls-2" d="M24,20.33a3.13,3.13,0,1,1-3.13-3.12A3.13,3.13,0,0,1,24,20.33"/><path class="cls-2" d="M18,26.58a7,7,0,0,0,14.09,0h0v-1H18Z"/></svg>