<svg id="Layer_1" data-name="Layer 1" xmlns="http://www.w3.org/2000/svg" viewBox="0 0 50 50"><defs><style>.cls-1{fill:#1800e7;}.cls-2{fill:#fff;}</style></defs><title>TM_Filled_icons</title><path class="cls-1" d="M41.84,25.86,24.94,9.3a.22.22,0,0,0-.32,0L8.16,25.86a.23.23,0,0,0,.16.39h4.17a.45.45,0,0,1,.45.45V40.32a.46.46,0,0,0,.46.45H36.56a.46.46,0,0,0,.46-.45V26.7a.45.45,0,0,1,.45-.45h4.21a.23.23,0,0,0,.16-.39"/><path class="cls-1" d="M36.56,41.36H13.4a1,1,0,0,1-1.05-1V26.84h-4a.82.82,0,0,1-.58-1.4L24.2,8.88a.82.82,0,0,1,1.16,0L42.25,25.43a.82.82,0,0,1-.57,1.41H37.61V40.32A1,1,0,0,1,36.56,41.36Zm-23-1.19H36.42V26.7a1,1,0,0,1,1-1.05h3.3L24.79,10,9.21,25.65h3.28a1,1,0,0,1,1,1.05ZM25.05,9.72h0Z"/><path class="cls-2" d="M25,29.55h0a4.76,4.76,0,0,0-3.19,1.37.64.64,0,0,0,0,.92.65.65,0,0,0,.92,0,3.45,3.45,0,0,1,2.27-1h0a3.45,3.45,0,0,1,2.27,1,.65.65,0,0,0,.92,0,.64.64,0,0,0,0-.92A4.76,4.76,0,0,0,25,29.55Z"/><path class="cls-2" d="M17.76,26.4a9.88,9.88,0,0,1,14-.53c.18.17.35.35.52.53a.66.66,0,0,0,.93,0,.65.65,0,0,0,0-.92,11.19,11.19,0,0,0-15.81-.6c-.2.19-.4.39-.59.6a.65.65,0,0,0,0,.92.66.66,0,0,0,.93,0Z"/><path class="cls-2" d="M30.33,29.32a.64.64,0,0,0,.66-.65.66.66,0,0,0-.19-.46,8,8,0,0,0-11.33-.27l-.27.27a.66.66,0,0,0,0,.93.65.65,0,0,0,.92,0,6.7,6.7,0,0,1,9.47-.26,3.31,3.31,0,0,1,.27.26.58.58,0,0,0,.46.19Z"/><path class="cls-2" d="M25.69,33.19a.72.72,0,1,1-.72-.72.72.72,0,0,1,.72.72"/></svg>