<svg id="Layer_1" data-name="Layer 1" xmlns="http://www.w3.org/2000/svg" viewBox="0 0 50 50"><defs><style>.cls-1{fill:#1800e7;}</style></defs><title>TM_Outlined_icons</title><path class="cls-1" d="M42.83,45H9.3a.73.73,0,0,1-.73-.73V10.74a.74.74,0,1,1,1.47,0V43.53H42.83a.74.74,0,0,1,0,1.47Z"/><path class="cls-1" d="M9.3,39.42a.76.76,0,0,1-.52-.22.75.75,0,0,1,0-1L20,27a.71.71,0,0,1,.53-.22A.74.74,0,0,1,21,27l5.15,5.31L42.31,15.81a.74.74,0,1,1,1,1l-16.68,17a.74.74,0,0,1-.52.22h0a.74.74,0,0,1-.52-.22l-5.16-5.32L9.82,39.2A.74.74,0,0,1,9.3,39.42Z"/><path class="cls-1" d="M42.83,22.65a.73.73,0,0,1-.73-.73V17.06H37.25a.74.74,0,1,1,0-1.47h5.58a.73.73,0,0,1,.73.74v5.59A.73.73,0,0,1,42.83,22.65Z"/></svg>