<svg id="Layer_1" data-name="Layer 1" xmlns="http://www.w3.org/2000/svg" viewBox="0 0 50 50"><defs><style>.cls-1{fill:#1800e7;}</style></defs><title>TM_Outlined_icons</title><path class="cls-1" d="M41.83,24.72H8.17a.67.67,0,0,1-.67-.67V18.24a.67.67,0,0,1,.67-.67H41.83a.67.67,0,0,1,.67.67v5.81A.67.67,0,0,1,41.83,24.72Zm-33-1.34H41.16V18.91H8.84Z"/><path class="cls-1" d="M39.14,41.93H10.86a.67.67,0,0,1-.67-.67V24.18a.67.67,0,0,1,1.34,0V40.6H38.47V24.18a.67.67,0,1,1,1.34,0V41.26A.67.67,0,0,1,39.14,41.93Z"/><path class="cls-1" d="M22.14,41.93a.67.67,0,0,1-.67-.67V18.33a.67.67,0,0,1,1.34,0V41.26A.67.67,0,0,1,22.14,41.93Z"/><path class="cls-1" d="M27.8,41.93a.67.67,0,0,1-.67-.67V18.45a.67.67,0,0,1,1.34,0V41.26A.67.67,0,0,1,27.8,41.93Z"/><path class="cls-1" d="M21.5,18.82a11,11,0,0,1-3.09-.38,5.24,5.24,0,0,1-3.63-5.06,5.36,5.36,0,0,1,3.65-5,5.33,5.33,0,0,1,6.94,3.9,6.57,6.57,0,0,1,.14,1.49h0c0,.78,0,1.56,0,2.34v1.49a1.39,1.39,0,0,0,0,.23.88.88,0,0,1,0,.16.67.67,0,0,1-.15.54.68.68,0,0,1-.51.23c-.57,0-1.16,0-1.73.05S22.07,18.82,21.5,18.82ZM20.18,9.41a4.57,4.57,0,0,0-1.35.21,4,4,0,0,0-2.71,3.77,4,4,0,0,0,2.66,3.77,13.43,13.43,0,0,0,4.36.27l1,0V16.07c0-.77,0-1.55,0-2.32h0a6,6,0,0,0-.11-1.2,4.1,4.1,0,0,0-1.94-2.64A4,4,0,0,0,20.18,9.41Z"/><path class="cls-1" d="M28.5,18.82c-.57,0-1.13,0-1.69-.05s-1.16-.05-1.73-.05a.68.68,0,0,1-.51-.23.67.67,0,0,1-.15-.54.88.88,0,0,1,0-.16,1.39,1.39,0,0,0,0-.23v-1.5c0-.77,0-1.55,0-2.33a6.57,6.57,0,0,1,.14-1.49,5.33,5.33,0,0,1,6.94-3.9,5.36,5.36,0,0,1,3.65,5,5.24,5.24,0,0,1-3.63,5.06A11,11,0,0,1,28.5,18.82Zm-2.68-1.43,1,0a13.42,13.42,0,0,0,4.36-.27,4,4,0,0,0,2.66-3.77,4,4,0,0,0-2.71-3.77h0a4.14,4.14,0,0,0-3.3.29,4.1,4.1,0,0,0-1.94,2.64,6.09,6.09,0,0,0-.11,1.2c0,.77,0,1.54,0,2.31Z"/></svg>