<svg id="Layer_1" data-name="Layer 1" xmlns="http://www.w3.org/2000/svg" viewBox="0 0 50 50"><defs><style>.cls-1{fill:#1800e7;}</style></defs><title>TM_Outlined_icons</title><path class="cls-1" d="M40.62,43.77a6.13,6.13,0,0,1-.62,0v0H13.13c-2.65,0-3.42-2.55-3.46-3.9V9.66a1.07,1.07,0,0,1,.61-1,1,1,0,0,1,1.12.13l0,0,3.21,3,3.67-3.19a1.41,1.41,0,0,1,1.66,0l0,0,3.78,3.2,3.47-3.2a1.38,1.38,0,0,1,1.71,0l0,0,3.67,3.16,3.16-3A1.05,1.05,0,0,1,37,8.71a1.07,1.07,0,0,1,.61,1V22l5.72-.07h0a1.35,1.35,0,0,1,1.35,1.36V40.1a3.77,3.77,0,0,1-1,2.55A4,4,0,0,1,40.62,43.77Zm-3-20.3V40.09c.08.51.57,2.22,3,2.22a2.68,2.68,0,0,0,2-.66,2.34,2.34,0,0,0,.61-1.53V23.4ZM11.13,10.56V39.85c0,.23.14,2.46,2,2.46H37.08a4.1,4.1,0,0,1-.94-2,.9.9,0,0,1,0-.23V10.58l-2.51,2.35a1.36,1.36,0,0,1-1.82,0L28.14,9.81,24.73,13a1.36,1.36,0,0,1-1.8,0L19.16,9.83,15.54,13a1.36,1.36,0,0,1-1.81,0Z"/><path class="cls-1" d="M24.59,25.75c-2.23-.4-2.87-.67-2.87-1.31s.6-1.05,1.79-1.05a5.55,5.55,0,0,1,3.78,1.41l2-1.68a7.07,7.07,0,0,0-4.48-2V19.43H22.74v1.66c-2.56.26-4.13,1.55-4.13,3.64,0,2.87,2.53,3.39,5.19,3.8,2.32.36,3,.65,3,1.43s-.82,1.28-2.27,1.28a3.84,3.84,0,0,1-3.81-2l-3.06.62c.72,1.87,2,3.28,5.09,3.66v1.83h2.09V33.6c3.47-.11,5.07-1.7,5.07-4,0-3-3.18-3.53-5.33-3.9"/></svg>