<svg id="Layer_1" data-name="Layer 1" xmlns="http://www.w3.org/2000/svg" viewBox="0 0 50 50"><defs><style>.cls-1{fill:#1800e7;}</style></defs><title>TM_Outlined_icons</title><path class="cls-1" d="M36.56,41.62H13.4a1,1,0,0,1-1.05-1V27.09h-4a.83.83,0,0,1-.76-.5.82.82,0,0,1,.18-.9L24.2,9.13a.83.83,0,0,1,1.16,0L42.25,25.68a.84.84,0,0,1,.19.9.83.83,0,0,1-.76.51H37.61V40.57A1,1,0,0,1,36.56,41.62Zm-23-1.2H36.42V27a1,1,0,0,1,1-1.05h3.3l-16-15.67L9.21,25.9h3.28a1,1,0,0,1,1,1.05Zm-5-13.89ZM25.05,10h0Z"/><path class="cls-1" d="M25,29.8h0a4.76,4.76,0,0,0-3.18,1.37.65.65,0,1,0,.92.93,3.45,3.45,0,0,1,2.27-1h0a3.47,3.47,0,0,1,2.27,1,.65.65,0,0,0,.92,0,.66.66,0,0,0,0-.93A4.76,4.76,0,0,0,25,29.8Z"/><path class="cls-1" d="M17.76,26.65a9.88,9.88,0,0,1,14-.52c.18.16.35.34.52.52a.65.65,0,0,0,1-.89,11.18,11.18,0,0,0-15.81-.59c-.2.19-.4.38-.59.59a.65.65,0,0,0,1,.89Z"/><path class="cls-1" d="M30.33,29.58a.66.66,0,0,0,.47-1.12,8,8,0,0,0-11.33-.27l-.27.27a.66.66,0,0,0,.93.93,6.7,6.7,0,0,1,9.47-.27c.09.09.18.17.27.27a.66.66,0,0,0,.46.19Z"/><path class="cls-1" d="M25.68,33.44a.72.72,0,1,1-.71-.71.71.71,0,0,1,.71.71"/></svg>