<svg id="Layer_1" data-name="Layer 1" xmlns="http://www.w3.org/2000/svg" viewBox="0 0 50 50"><defs><style>.cls-1{fill:#1800e7;}</style></defs><title>TM_Outlined_icons</title><path class="cls-1" d="M36.67,40.9h-24a1.65,1.65,0,0,1-1.65-1.65V23.43a1.65,1.65,0,0,1,1.65-1.66h24a1.65,1.65,0,0,1,1.65,1.66V39.25A1.65,1.65,0,0,1,36.67,40.9Zm-24-17.54a.08.08,0,0,0-.07.07V39.25a.07.07,0,0,0,.07.07h24a.07.07,0,0,0,.07-.07V23.43a.07.07,0,0,0-.07-.07Z"/><path class="cls-1" d="M18.14,22.41H16.56V17.58c0-.4,0-.81,0-1.21a15.42,15.42,0,0,1,.33-4.54A8.61,8.61,0,0,1,19,8,8,8,0,0,1,24.73,5.9a10.89,10.89,0,0,1,1.85.16A7.39,7.39,0,0,1,31.3,9a9.4,9.4,0,0,1,1.58,5.53v7.71H31.29V14.56A7.74,7.74,0,0,0,30,9.94a5.78,5.78,0,0,0-3.71-2.32,8.56,8.56,0,0,0-1.56-.13,6.46,6.46,0,0,0-4.59,1.67,6.91,6.91,0,0,0-1.74,3.1,14.34,14.34,0,0,0-.28,4.07c0,.42,0,.84,0,1.25Z"/><rect class="cls-1" x="23.43" y="28.06" width="2.53" height="6.38"/></svg>