<svg id="Layer_1" data-name="Layer 1" xmlns="http://www.w3.org/2000/svg" viewBox="0 0 50 50"><defs><style>.cls-1{fill:#1800e7;}</style></defs><title>TM_Outlined_icons</title><path class="cls-1" d="M35.82,43a1.81,1.81,0,0,0,1.82-1.82V15.66a1.84,1.84,0,0,0-.55-1.31L31,8.52A1.8,1.8,0,0,0,29.77,8H13.57a1.82,1.82,0,0,0-1.82,1.82V41.19A1.81,1.81,0,0,0,13.57,43Zm-23-1.82V9.83a.73.73,0,0,1,.73-.72h16.2a.74.74,0,0,1,.5.2l6.06,5.83h0a.74.74,0,0,1,.22.52V41.19a.73.73,0,0,1-.73.73H13.57a.73.73,0,0,1-.73-.73Z"/><path class="cls-1" d="M16.23,40.28H33.16a1.75,1.75,0,0,0,1.75-1.75V25.88a1.74,1.74,0,0,0-1.75-1.74H16.23a1.74,1.74,0,0,0-1.75,1.74V38.53a1.75,1.75,0,0,0,1.75,1.75Zm-.65-1.75V32.42h5.63v6.77h-5a.66.66,0,0,1-.65-.66m12.6-8.71h5.64V34.6H28.18Zm-1.09,9.37H22.31v-14h4.78Zm6.07,0h-5v-3.5h5.64v2.84a.67.67,0,0,1-.66.66m.66-13.31v2.84H28.18V25.23h5a.66.66,0,0,1,.66.65m-17.59-.65h5v6.1H15.58V25.88a.65.65,0,0,1,.65-.65"/></svg>