<svg id="Layer_1" data-name="Layer 1" xmlns="http://www.w3.org/2000/svg" viewBox="0 0 50 50"><defs><style>.cls-1{fill:#1800e7;}</style></defs><title>TM_Outlined_icons</title><path class="cls-1" d="M25.36,34.16h0a.89.89,0,0,1-.81-.56L19.73,21.71,15.2,27.77a1.45,1.45,0,0,1-1.15.58H8.11a.63.63,0,0,1-.63-.63.64.64,0,0,1,.63-.64h5.94a.16.16,0,0,0,.14-.07l4.91-6.57a.9.9,0,0,1,1.56.2l4.72,11.7,3.54-7.64a.89.89,0,0,1,.83-.52.91.91,0,0,1,.82.54l2.76,6.18L35.57,28a1.44,1.44,0,0,1,1.14-.56h5.13a.64.64,0,0,1,.64.64.64.64,0,0,1-.64.63H36.71a.17.17,0,0,0-.14.07L34,32.16A.9.9,0,0,1,32.42,32l-2.69-6-3.55,7.68A.9.9,0,0,1,25.36,34.16Zm4.05-8.93Z"/></svg>