<svg id="Layer_1" data-name="Layer 1" xmlns="http://www.w3.org/2000/svg" viewBox="0 0 50 50"><defs><style>.cls-1{fill:#1800e7;}</style></defs><title>TM_Outlined_icons</title><path class="cls-1" d="M25.85,21.92H25.8a5.35,5.35,0,0,0-3.58,1.53.73.73,0,0,0,0,1,.74.74,0,0,0,1,0,3.8,3.8,0,0,1,2.54-1.11h.06A3.82,3.82,0,0,1,28.4,24.5a.74.74,0,0,0,1-1.05,5.26,5.26,0,0,0-3.57-1.53Zm-8.12-3.55a11.1,11.1,0,0,1,15.68-.59c.2.19.4.39.59.59a.73.73,0,0,0,1,0,.74.74,0,0,0,0-1,12.56,12.56,0,0,0-17.75-.67c-.23.22-.46.44-.67.67a.74.74,0,0,0,1.08,1Zm14.12,3.29a.74.74,0,0,0,.74-.73.76.76,0,0,0-.21-.52,9,9,0,0,0-12.73-.31l-.3.31a.73.73,0,0,0,0,1,.74.74,0,0,0,1,0A7.52,7.52,0,0,1,31,21.15a2.76,2.76,0,0,1,.3.29.74.74,0,0,0,.52.22Zm8.31,5.23H11.56a3.19,3.19,0,0,0-3.19,3.19v3.4a3.19,3.19,0,0,0,3.19,3.2H40.17a3.2,3.2,0,0,0,3.2-3.2v-3.4a3.19,3.19,0,0,0-3.2-3.19h0Zm2,6.59a2,2,0,0,1-2,2H11.56a2,2,0,0,1-2-2v-3.4a2,2,0,0,1,2-2H40.17a2,2,0,0,1,2,2ZM39,31.25H25.14a.59.59,0,1,0,0,1.17H39a.59.59,0,0,0,0-1.17Zm-24.55-1A1.5,1.5,0,1,0,16,31.75a1.5,1.5,0,0,0-1.51-1.5h0Zm4.2,0a1.5,1.5,0,1,0,1.51,1.5,1.5,1.5,0,0,0-1.51-1.5h0Z"/></svg>