<svg id="Layer_1" data-name="Layer 1" xmlns="http://www.w3.org/2000/svg" viewBox="0 0 50 50"><defs><style>.cls-1{fill:#1800e7;}</style></defs><title>TM_Outlined_icons</title><path class="cls-1" d="M8.85,16.32H31.3a.38.38,0,0,1,.4.35v4.86h7.57a.35.35,0,0,1,.32.19l3.25,5.21a.32.32,0,0,1,.08.2v7.22a.38.38,0,0,1-.36.4H38.87a3.19,3.19,0,0,1-6.33,0H18a3.19,3.19,0,0,1-6.33,0H8.85a.39.39,0,0,1-.4-.35V16.72a.38.38,0,0,1,.36-.4h0m30.22,6H31.7v4.41H41.8Zm3,5.21H31.7V34h.5c.14,0,.35,0,.43-.11a.47.47,0,0,0,0-.16,3.2,3.2,0,0,1,3.77-2.36,3,3,0,0,1,.82.27,3.26,3.26,0,0,1,1.41,1.29,1.74,1.74,0,0,1,.2.49,1.66,1.66,0,0,0,.12.5h3.13Zm-6.41,9.21a2.41,2.41,0,1,0-2.41-2.4,2.4,2.4,0,0,0,2.41,2.4Zm-20.84,0a2.41,2.41,0,1,0-2.41-2.4,2.4,2.4,0,0,0,2.41,2.4ZM9.26,34h2.43a3.49,3.49,0,0,1,1.68-2.28,3.2,3.2,0,0,1,4.38,1.15,2.38,2.38,0,0,1,.24.51,4.81,4.81,0,0,0,.16.54H30.9V17.12H9.25Z"/><path class="cls-1" d="M35.71,37.82l-.42,0a3.45,3.45,0,0,1-3-2.78h-14a3.46,3.46,0,0,1-6.79,0H8.85a.64.64,0,0,1-.45-.16.66.66,0,0,1-.21-.45.11.11,0,0,1,0-.08V16.72a.64.64,0,0,1,.6-.67H31.3a.64.64,0,0,1,.66.61v4.6h7.31a.62.62,0,0,1,.56.35l3.22,5.17a.54.54,0,0,1,.13.35v7.22a.64.64,0,0,1-.6.67H39.1A3.46,3.46,0,0,1,35.71,37.82ZM17.8,34.48h15l0,.24a2.93,2.93,0,0,0,5.81,0l0-.24h3.89l0,.27v-.27a.1.1,0,0,0,.1-.11V27.11l0,0-3.25-5.2c0-.06,0-.08-.09-.08H31.43V16.72l.27,0-.27,0a.12.12,0,0,0-.12-.11H8.82a.12.12,0,0,0-.1.12V34.35l-.27,0,.27,0a.1.1,0,0,0,0,.08s0,0,.08,0h3.09l0,.24a2.93,2.93,0,0,0,5.81,0ZM35.71,37h0a2.67,2.67,0,0,1,0-5.34h0a2.67,2.67,0,0,1,1.88,4.56A2.65,2.65,0,0,1,35.71,37Zm0-4.81h0a2.14,2.14,0,0,0,0,4.28v0a2.15,2.15,0,0,0,1.51-.63,2.14,2.14,0,0,0-1.51-3.65ZM14.87,37h0a2.67,2.67,0,1,1,2.68-2.67A2.7,2.7,0,0,1,14.86,37Zm0-4.81a2.14,2.14,0,0,0,0,4.28v0a2.14,2.14,0,0,0,0-4.28Zm17.51,2h-1V27.27h11v6.87H38.84L38.76,34a1.17,1.17,0,0,1-.12-.42s0-.1,0-.14a2,2,0,0,0-.18-.43,2.9,2.9,0,0,0-1.29-1.18,3,3,0,0,0-.76-.25A3.24,3.24,0,0,0,34,32.1a2.47,2.47,0,0,0-1.07,1.63,1.19,1.19,0,0,1-.07.23A.5.5,0,0,1,32.38,34.22ZM32,33.68h.44v0a3.09,3.09,0,0,1,1.29-2,3.77,3.77,0,0,1,2.78-.6,3.06,3.06,0,0,1,.9.29,3.52,3.52,0,0,1,1.53,1.4,2,2,0,0,1,.22.56,1.42,1.42,0,0,1,0,.2s0,.06,0,.09h2.67V27.8H32Zm-21.2.54H9V16.85H31.16V34.14H18L17.92,34a1,1,0,0,1-.13-.4,1.21,1.21,0,0,0-.05-.18,2.84,2.84,0,0,0-.88-1.24,3,3,0,0,0-3.36-.28A3.2,3.2,0,0,0,12,34l0,.2H10.76Zm-1.24-.54h2a3.81,3.81,0,0,1,1.76-2.25A3.5,3.5,0,0,1,18,32.68a3.94,3.94,0,0,1,.26.55c0,.09.05.18.07.26a.52.52,0,0,1,0,.11h12.3V17.38H9.52ZM42.28,27H31.43V22.06h7.79ZM32,26.47h9.36l-2.4-3.87H32Z"/></svg>