<svg id="Layer_1" data-name="Layer 1" xmlns="http://www.w3.org/2000/svg" viewBox="0 0 50 50"><defs><style>.cls-1{fill:#1800e7;}</style></defs><title>TM_Outlined_icons</title><path class="cls-1" d="M22.1,42.92H8.21a.71.71,0,0,1-.71-.72V8.83a.71.71,0,0,1,.71-.72H22.1a.72.72,0,0,1,.72.72V42.2A.72.72,0,0,1,22.1,42.92ZM8.93,41.49H21.39V9.54H8.93Z"/><path class="cls-1" d="M41.79,42.92H27.9a.72.72,0,0,1-.72-.72V23.44a.71.71,0,0,1,.72-.71H41.79a.71.71,0,0,1,.71.71V42.2A.71.71,0,0,1,41.79,42.92ZM28.61,41.49H41.07V24.16H28.61Z"/><path class="cls-1" d="M41.79,18.56H27.9a.72.72,0,0,1-.72-.72v-9a.72.72,0,0,1,.72-.72H41.79a.71.71,0,0,1,.71.72v9A.71.71,0,0,1,41.79,18.56ZM28.61,17.13H41.07V9.54H28.61Z"/></svg>