<svg id="Layer_1" data-name="Layer 1" xmlns="http://www.w3.org/2000/svg" viewBox="0 0 50 50"><defs><style>.cls-1{fill:#1800e7;}</style></defs><title>TM_Outlined_icons</title><path class="cls-1" d="M8.42,29.34A.61.61,0,0,1,8,29.17a.62.62,0,0,1,0-.88l6.39-6.64a3.23,3.23,0,0,1,1.3-.82l3-1a.62.62,0,0,1,.79.39.63.63,0,0,1-.39.79l-3,1a2.08,2.08,0,0,0-.8.5L8.87,29.15A.63.63,0,0,1,8.42,29.34Z"/><path class="cls-1" d="M10.19,36.65a.63.63,0,0,1,0-1.25l5.21-.18a1.87,1.87,0,0,0,1.07-.37L22,30.65a3.62,3.62,0,0,1,1.87-.72l.32,0a6.27,6.27,0,0,0,2.37-.71,8.61,8.61,0,0,0,1.2-.76,1.61,1.61,0,0,0,.62-.85.62.62,0,0,0-.08-.59,1.83,1.83,0,0,0-1.38-.4l-4.13.09a1.42,1.42,0,0,0-.82.28l-3.06,2.26a.62.62,0,1,1-.74-1L21.19,26a2.66,2.66,0,0,1,1.53-.52l4.14-.08a2.89,2.89,0,0,1,2.37.85,1.88,1.88,0,0,1,.33,1.66,2.79,2.79,0,0,1-1.07,1.55,9.38,9.38,0,0,1-1.38.88,7.31,7.31,0,0,1-2.84.85l-.33,0a2.32,2.32,0,0,0-1.22.47l-5.52,4.2a3.08,3.08,0,0,1-1.78.63l-5.2.18Z"/><path class="cls-1" d="M41.09,35.17H22.34a1.7,1.7,0,0,1-1.7-1.69V32.2a.63.63,0,0,1,1.25,0v1.28a.45.45,0,0,0,.45.44H41.09a.45.45,0,0,0,.45-.44v-13a.45.45,0,0,0-.45-.45H22.18a.45.45,0,0,0-.45.45v3a.62.62,0,0,1-.62.62.62.62,0,0,1-.62-.62v-3a1.7,1.7,0,0,1,1.69-1.7H41.09a1.7,1.7,0,0,1,1.7,1.7v13A1.7,1.7,0,0,1,41.09,35.17Z"/><path class="cls-1" d="M34.68,32H32.6a.63.63,0,0,1,0-1.25h2.08a.63.63,0,1,1,0,1.25Z"/><path class="cls-1" d="M39.27,32H37.19a.63.63,0,0,1,0-1.25h2.08a.63.63,0,1,1,0,1.25Z"/></svg>