<svg id="Layer_1" data-name="Layer 1" xmlns="http://www.w3.org/2000/svg" viewBox="0 0 50 50"><defs><style>.cls-1{fill:#1800e7;}.cls-2{fill:#fff;}</style></defs><title>TM_Outlined_icons</title><path class="cls-1" d="M8.39,36.49H40.68V16.36H8.39ZM28.23,37.8H8.13A1.23,1.23,0,0,1,7,36.48V16.4a1.23,1.23,0,0,1,1.1-1.32h32.8A1.22,1.22,0,0,1,42,16.4V36.48a1.22,1.22,0,0,1-1.1,1.32H28.23"/><path class="cls-1" d="M21.4,21.1l8.08,4.67a.54.54,0,0,1,0,.93L21.4,31.37a.54.54,0,0,1-.8-.47V21.57a.53.53,0,0,1,.8-.47"/><polygon class="cls-2" points="21.77 22.61 28.05 26.23 21.77 29.86 21.77 22.61"/></svg>