<svg id="Layer_1" data-name="Layer 1" xmlns="http://www.w3.org/2000/svg" viewBox="0 0 50 50"><defs><style>.cls-1{fill:#1800e7;}</style></defs><title>TM_Outlined_icons</title><path class="cls-1" d="M26.45,43.55A17.5,17.5,0,1,1,44,26.05,17.52,17.52,0,0,1,26.45,43.55Zm0-33.56A16.06,16.06,0,1,0,42.51,26.05,16.08,16.08,0,0,0,26.45,10Z"/><path class="cls-1" d="M27.33,23.69c-3-.53-3.83-.89-3.83-1.74s.8-1.4,2.38-1.4a7.4,7.4,0,0,1,5.05,1.88l2.72-2.25a9.36,9.36,0,0,0-6-2.7V15.25H24.85v2.23c-3.41.34-5.5,2.06-5.5,4.86,0,3.83,3.37,4.52,6.93,5.07,3.09.48,4,.86,4,1.9,0,1.22-1.1,1.72-3,1.72a5.14,5.14,0,0,1-5.09-2.7l-4.08.82c1,2.5,2.66,4.38,6.79,4.89v2.45h2.79V34.18c4.64-.15,6.77-2.28,6.77-5.28,0-3.95-4.24-4.7-7.11-5.21"/><rect class="cls-1" x="9.48" y="25.15" width="33.56" height="1.44" transform="translate(-10.6 26.15) rotate(-45.01)"/></svg>