<svg id="Layer_1" data-name="Layer 1" xmlns="http://www.w3.org/2000/svg" viewBox="0 0 50 50"><defs><style>.cls-1{fill:#1800e7;}</style></defs><title>TM_Outlined_icons</title><path class="cls-1" d="M25,43.45a17.52,17.52,0,0,1-8.67-2.29L10.8,42.72a2,2,0,0,1-1.58-.17,2.09,2.09,0,0,1-1-1.24,2.15,2.15,0,0,1,0-1.18l1.57-5.52A17.51,17.51,0,1,1,25,43.45ZM16.43,39.7a.68.68,0,0,1,.36.1,16.11,16.11,0,1,0-5.64-5.64.73.73,0,0,1,.07.54L9.57,40.52a.65.65,0,0,0,0,.39.69.69,0,0,0,.85.47l5.82-1.65A.63.63,0,0,1,16.43,39.7Z"/><path class="cls-1" d="M23.94,21.28a3.12,3.12,0,1,1-3.12-3.13,3.12,3.12,0,0,1,3.12,3.13"/><path class="cls-1" d="M32.3,21.28a3.13,3.13,0,1,1-3.13-3.13,3.13,3.13,0,0,1,3.13,3.13"/><path class="cls-1" d="M23.94,21.28a3.12,3.12,0,1,1-3.12-3.13,3.12,3.12,0,0,1,3.12,3.13"/><path class="cls-1" d="M18,27.53a7,7,0,0,0,14.09,0h0v-1H18Z"/></svg>